<svg version="1.1" id="Layer_1" xmlns="http://www.w3.org/2000/svg" xmlns:xlink="http://www.w3.org/1999/xlink" x="0px" y="0px"
	 width="100%" viewBox="0 0 290 290" enable-background="new 0 0 290 290" xml:space="preserve">
<path fill="#000000" opacity="1.000000" stroke="none" 
	d="
M171.612366,225.624329 
	C187.707260,214.967529 203.504196,204.515442 219.530029,193.911880 
	C217.642502,190.192017 215.935013,186.826935 213.983307,182.980560 
	C207.358429,186.788818 200.979156,190.455856 193.582108,194.707977 
	C194.227463,191.841034 194.640060,189.875046 195.114883,187.924194 
	C196.414230,182.585739 197.004120,176.925720 199.205948,171.986374 
	C203.987442,161.260208 199.604202,152.809967 193.527237,143.973999 
	C187.157486,147.639679 180.755539,151.323883 173.450348,155.527893 
	C175.834869,145.789993 177.682724,136.855133 180.281876,128.144424 
	C181.868698,122.826385 181.632126,118.321648 178.683945,113.561676 
	C175.906799,109.077881 173.823761,104.164192 171.224030,99.021599 
	C164.517410,102.879799 158.104172,106.569229 152.305878,109.904877 
	C157.372711,80.883011 162.485245,51.599354 167.669327,21.905914 
	C167.438385,21.940990 168.076981,21.777735 168.719635,21.759729 
	C170.209625,21.717987 171.701569,21.746447 173.722763,21.746447 
	C175.262894,27.503717 177.102448,33.163132 178.270020,38.957939 
	C183.022415,62.544888 192.938522,83.928055 204.577393,104.841049 
	C220.834534,134.052200 236.104385,163.812820 252.035126,193.786942 
	C216.860504,218.899017 181.676315,244.017929 146.210846,269.337646 
	C110.877174,244.178909 75.527275,219.008621 40.251495,193.891113 
	C60.772766,155.285706 81.488396,117.315773 101.099838,78.783852 
	C106.663712,67.852119 109.094315,55.308720 112.790070,43.450905 
	C114.422127,38.214458 116.034492,32.910797 116.909447,27.516598 
	C117.789001,22.093971 120.395683,20.556507 124.697449,21.895466 
	C129.825760,51.368172 134.908691,80.579994 139.997009,109.822807 
	C134.315201,106.573357 127.946510,102.931076 121.156647,99.047928 
	C117.747826,105.770500 114.179764,112.322701 111.154480,119.116600 
	C110.405640,120.798271 111.173805,123.322639 111.662033,125.359596 
	C114.012840,135.167343 116.506485,144.940872 119.163162,155.582657 
	C111.900383,151.390259 105.460075,147.672638 98.697136,143.768768 
	C96.132164,148.731293 93.496490,153.331268 91.400963,158.165390 
	C90.701355,159.779297 91.051331,162.070694 91.488960,163.917953 
	C93.856018,173.909592 96.401123,183.859055 99.123917,194.782074 
	C91.709602,190.534607 85.147224,186.775177 78.543282,182.991943 
	C76.585854,186.651917 74.785492,190.018219 72.771027,193.784851 
	C83.623779,200.972946 94.415192,208.127777 105.214264,215.271042 
	C117.709007,223.535934 130.259445,231.718262 142.668839,240.109268 
	C145.233307,241.843307 147.050781,242.047592 149.689545,240.195419 
	C156.770508,235.225235 164.089767,230.594559 171.612366,225.624329 
z"/>
<path fill="#000000" opacity="1.000000" stroke="none" 
	d="
M137.870468,166.999969 
	C137.869888,161.678726 138.406982,156.782913 137.750748,152.052628 
	C136.579941,143.613052 139.961899,137.345093 146.090729,131.669312 
	C150.676025,136.969025 155.036713,141.742889 154.570816,150.045807 
	C153.733856,164.961502 154.327881,179.957550 154.326050,194.920013 
	C154.324722,205.689880 154.075729,206.297348 145.846008,215.196960 
	C141.015167,209.233414 136.794113,203.544556 137.666061,194.910538 
	C138.580170,185.859116 137.870468,176.643707 137.870468,166.999969 
z"/>
</svg>