<svg version="1.1" id="Layer_1" xmlns="http://www.w3.org/2000/svg" xmlns:xlink="http://www.w3.org/1999/xlink" x="0px" y="0px"
	 width="100%" viewBox="0 0 334 334" enable-background="new 0 0 334 334" xml:space="preserve">
<path fill="#0070C0" opacity="1.000000" stroke="none" 
	d="
M297.836304,290.980286 
	C296.182587,291.321655 294.529388,291.957794 292.875000,291.960815 
	C261.095367,292.018829 229.288879,292.818634 197.543030,291.780579 
	C163.258789,290.659485 137.107880,271.553192 130.267792,235.682312 
	C127.355392,220.409042 128.013809,204.866699 133.210327,189.173859 
	C137.748795,177.219513 143.474503,166.961243 153.062943,159.086563 
	C166.798386,147.806046 183.297592,145.517746 200.074463,143.879150 
	C212.506256,143.879150 224.938034,143.879150 238.000168,143.879150 
	C238.000168,131.520569 238.000168,119.447205 238.000168,107.373840 
	C238.000168,95.444557 238.000168,83.515282 238.000168,71.001648 
	C242.714844,71.001648 246.984207,71.001633 251.253555,71.001648 
	C265.050842,71.001694 278.848450,70.958466 292.645050,71.057884 
	C294.326630,71.070000 296.002655,71.848732 297.617981,73.049629 
	C297.369537,75.973167 297.023468,78.119186 297.022552,80.265358 
	C296.994080,148.040970 296.990356,215.816574 297.034393,283.592163 
	C297.036011,286.055054 297.557251,288.517578 297.836304,290.980286 
M234.281891,243.997711 
	C235.516190,243.154999 237.816223,242.325912 237.827194,241.467545 
	C238.039795,224.833847 237.984802,208.196716 237.984802,192.000473 
	C229.825577,192.000473 222.053238,191.905914 214.284378,192.030396 
	C208.072952,192.129929 202.210236,193.657257 197.551514,198.008682 
	C189.566574,205.466995 188.856689,215.081116 190.557785,224.977493 
	C192.193344,234.492538 198.282791,240.477158 207.739777,241.921524 
	C216.176743,243.210114 224.788956,243.351379 234.281891,243.997711 
z"/>
<path fill="#002060" opacity="1.000000" stroke="none" 
	d="
M200.113113,143.500427 
	C183.297592,145.517746 166.798386,147.806046 153.062943,159.086563 
	C143.474503,166.961243 137.748795,177.219513 133.210388,188.779022 
	C123.648956,189.347366 114.355583,189.768555 105.057442,189.970459 
	C93.693657,190.217239 95.063843,188.706818 95.019821,200.233002 
	C94.949158,218.731689 94.871635,237.232346 95.088707,255.728760 
	C95.143188,260.370850 93.969719,262.192352 88.990013,262.107178 
	C72.828972,261.830750 56.659252,261.904083 40.495228,262.070984 
	C36.462254,262.112640 34.950794,260.906738 34.956722,256.697205 
	C35.055489,186.534637 35.046841,116.371864 34.976639,46.209225 
	C34.972878,42.450066 36.037987,40.920467 40.072327,40.937763 
	C70.903343,41.069904 101.745773,40.518311 132.563019,41.182678 
	C152.887726,41.620846 171.451355,47.785088 185.842819,63.322021 
	C195.051193,73.263298 200.576431,85.043472 202.748901,98.253761 
	C205.229248,113.335945 204.601669,128.373535 200.113113,143.500427 
M116.309143,89.999619 
	C110.646805,90.003365 104.984375,90.026077 99.322159,90.001930 
	C96.917412,89.991669 95.030960,90.405525 95.037788,93.462044 
	C95.071274,108.450142 94.978416,123.439346 95.184723,138.424652 
	C95.201012,139.607666 97.185463,141.795044 98.214333,141.770935 
	C107.158089,141.561325 116.131401,141.310776 125.016907,140.345276 
	C131.670639,139.622284 137.086884,135.625229 139.860443,129.716736 
	C147.007980,114.490379 144.264099,90.918488 116.309143,89.999619 
z"/>
</svg>